<svg width="1600" height="1000" viewBox="0 0 1600 1000" fill="none" xmlns="http://www.w3.org/2000/svg">
  <defs>
    <linearGradient id="bg" x1="180" y1="160" x2="1420" y2="900" gradientUnits="userSpaceOnUse">
      <stop offset="0" stop-color="#0B0F16"/>
      <stop offset="0.55" stop-color="#0B2A4A" stop-opacity="0.75"/>
      <stop offset="1" stop-color="#0B0F16"/>
    </linearGradient>
    <linearGradient id="acc" x1="520" y1="240" x2="1180" y2="780" gradientUnits="userSpaceOnUse">
      <stop offset="0" stop-color="#F4B400" stop-opacity="0.85"/>
      <stop offset="1" stop-color="#F4B400" stop-opacity="0.10"/>
    </linearGradient>
  </defs>

  <rect width="1600" height="1000" rx="48" fill="url(#bg)"/>
  <rect x="110" y="160" width="1380" height="680" rx="36" fill="#FFFFFF" fill-opacity="0.04" stroke="#FFFFFF" stroke-opacity="0.10"/>

  <rect x="240" y="300" width="470" height="460" rx="28" fill="#FFFFFF" fill-opacity="0.06" stroke="#FFFFFF" stroke-opacity="0.10"/>
  <rect x="280" y="340" width="170" height="70" rx="16" fill="#0B2A4A" fill-opacity="0.85"/>
  <rect x="470" y="340" width="200" height="70" rx="16" fill="#FFFFFF" fill-opacity="0.05" stroke="#FFFFFF" stroke-opacity="0.10"/>
  <rect x="280" y="440" width="390" height="260" rx="20" fill="#0B0F16" fill-opacity="0.35" stroke="#FFFFFF" stroke-opacity="0.10"/>

  <rect x="760" y="290" width="610" height="470" rx="28" fill="#FFFFFF" fill-opacity="0.06" stroke="#FFFFFF" stroke-opacity="0.10"/>
  <rect x="820" y="340" width="290" height="120" rx="22" fill="#FFFFFF" fill-opacity="0.06" stroke="#FFFFFF" stroke-opacity="0.10"/>
  <rect x="1140" y="340" width="170" height="120" rx="22" fill="#FFFFFF" fill-opacity="0.06" stroke="#FFFFFF" stroke-opacity="0.10"/>
  <rect x="820" y="490" width="490" height="220" rx="24" fill="#0B0F16" fill-opacity="0.35" stroke="#FFFFFF" stroke-opacity="0.10"/>
  <circle cx="1210" cy="550" r="70" fill="url(#acc)"/>

  <g opacity="0.85">
    <text x="120" y="930" fill="#FFFFFF" fill-opacity="0.42" font-family="Inter, Arial, sans-serif" font-size="18">CNC / MACHINING PLACEHOLDER · 可替换为加工中心/焊接机器人场景</text>
  </g>
</svg>

