<svg width="1600" height="1000" viewBox="0 0 1600 1000" fill="none" xmlns="http://www.w3.org/2000/svg">
  <defs>
    <linearGradient id="g0" x1="180" y1="120" x2="1420" y2="920" gradientUnits="userSpaceOnUse">
      <stop offset="0" stop-color="#0B2A4A"/>
      <stop offset="0.45" stop-color="#0B2A4A" stop-opacity="0.75"/>
      <stop offset="1" stop-color="#F4B400" stop-opacity="0.9"/>
    </linearGradient>
    <radialGradient id="g1" cx="0" cy="0" r="1" gradientUnits="userSpaceOnUse" gradientTransform="translate(320 220) rotate(45) scale(740 520)">
      <stop stop-color="#0B2A4A" stop-opacity="0.45"/>
      <stop offset="1" stop-color="#0B2A4A" stop-opacity="0"/>
    </radialGradient>
    <radialGradient id="g2" cx="0" cy="0" r="1" gradientUnits="userSpaceOnUse" gradientTransform="translate(1260 260) rotate(135) scale(680 460)">
      <stop stop-color="#F4B400" stop-opacity="0.35"/>
      <stop offset="1" stop-color="#F4B400" stop-opacity="0"/>
    </radialGradient>
  </defs>

  <rect width="1600" height="1000" rx="48" fill="#0B0F16"/>
  <rect x="24" y="24" width="1552" height="952" rx="40" fill="url(#g1)"/>
  <rect x="24" y="24" width="1552" height="952" rx="40" fill="url(#g2)"/>

  <path d="M220 670C420 520 620 480 800 520C980 560 1100 690 1320 660" stroke="url(#g0)" stroke-width="4" stroke-linecap="round"/>
  <path d="M220 720C420 570 620 530 800 570C980 610 1100 740 1320 710" stroke="#FFFFFF" stroke-opacity="0.16" stroke-width="2" stroke-linecap="round"/>

  <g opacity="0.9">
    <rect x="210" y="210" width="520" height="290" rx="28" fill="#FFFFFF" fill-opacity="0.06" stroke="#FFFFFF" stroke-opacity="0.12"/>
    <rect x="250" y="250" width="320" height="12" rx="6" fill="#F4B400" fill-opacity="0.92"/>
    <rect x="250" y="282" width="420" height="10" rx="5" fill="#FFFFFF" fill-opacity="0.18"/>
    <rect x="250" y="306" width="380" height="10" rx="5" fill="#FFFFFF" fill-opacity="0.14"/>
    <rect x="250" y="330" width="340" height="10" rx="5" fill="#FFFFFF" fill-opacity="0.12"/>
    <rect x="250" y="374" width="170" height="40" rx="12" fill="#0B2A4A"/>
    <rect x="430" y="374" width="170" height="40" rx="12" fill="#FFFFFF" fill-opacity="0.08" stroke="#FFFFFF" stroke-opacity="0.14"/>
  </g>

  <g opacity="0.95">
    <rect x="820" y="200" width="570" height="520" rx="36" fill="#FFFFFF" fill-opacity="0.04" stroke="#FFFFFF" stroke-opacity="0.10"/>
    <rect x="860" y="242" width="490" height="70" rx="18" fill="#0B2A4A" fill-opacity="0.9"/>
    <rect x="860" y="330" width="240" height="160" rx="22" fill="#FFFFFF" fill-opacity="0.06" stroke="#FFFFFF" stroke-opacity="0.10"/>
    <rect x="1120" y="330" width="230" height="160" rx="22" fill="#FFFFFF" fill-opacity="0.06" stroke="#FFFFFF" stroke-opacity="0.10"/>
    <rect x="860" y="510" width="490" height="170" rx="22" fill="#FFFFFF" fill-opacity="0.06" stroke="#FFFFFF" stroke-opacity="0.10"/>
    <circle cx="900" cy="277" r="10" fill="#F4B400"/>
    <rect x="920" y="271" width="250" height="12" rx="6" fill="#FFFFFF" fill-opacity="0.18"/>
  </g>

  <g opacity="0.85">
    <text x="72" y="930" fill="#FFFFFF" fill-opacity="0.42" font-family="Inter, Arial, sans-serif" font-size="18">HONGSHENG MACHINERY · HERO PLACEHOLDER</text>
  </g>
</svg>

