<svg width="1600" height="1000" viewBox="0 0 1600 1000" fill="none" xmlns="http://www.w3.org/2000/svg">
  <defs>
    <linearGradient id="bg" x1="160" y1="140" x2="1440" y2="900" gradientUnits="userSpaceOnUse">
      <stop offset="0" stop-color="#0B2A4A"/>
      <stop offset="0.55" stop-color="#0B0F16"/>
      <stop offset="1" stop-color="#0B2A4A"/>
    </linearGradient>
    <linearGradient id="acc" x1="460" y1="260" x2="1260" y2="820" gradientUnits="userSpaceOnUse">
      <stop offset="0" stop-color="#F4B400" stop-opacity="0.85"/>
      <stop offset="1" stop-color="#F4B400" stop-opacity="0.10"/>
    </linearGradient>
  </defs>

  <rect width="1600" height="1000" rx="48" fill="url(#bg)"/>
  <rect x="110" y="170" width="1380" height="660" rx="36" fill="#FFFFFF" fill-opacity="0.04" stroke="#FFFFFF" stroke-opacity="0.10"/>

  <rect x="240" y="280" width="450" height="480" rx="28" fill="#FFFFFF" fill-opacity="0.06" stroke="#FFFFFF" stroke-opacity="0.10"/>
  <rect x="290" y="340" width="350" height="120" rx="20" fill="#0B0F16" fill-opacity="0.35" stroke="#FFFFFF" stroke-opacity="0.10"/>
  <rect x="290" y="490" width="350" height="220" rx="20" fill="#0B0F16" fill-opacity="0.35" stroke="#FFFFFF" stroke-opacity="0.10"/>
  <circle cx="330" cy="320" r="10" fill="#F4B400"/>
  <circle cx="360" cy="320" r="10" fill="#FFFFFF" fill-opacity="0.20"/>
  <circle cx="390" cy="320" r="10" fill="#FFFFFF" fill-opacity="0.20"/>

  <rect x="740" y="260" width="630" height="520" rx="30" fill="#FFFFFF" fill-opacity="0.06" stroke="#FFFFFF" stroke-opacity="0.10"/>
  <rect x="800" y="320" width="510" height="150" rx="22" fill="url(#acc)"/>
  <rect x="800" y="500" width="250" height="240" rx="24" fill="#0B0F16" fill-opacity="0.35" stroke="#FFFFFF" stroke-opacity="0.10"/>
  <rect x="1070" y="500" width="240" height="240" rx="24" fill="#0B0F16" fill-opacity="0.35" stroke="#FFFFFF" stroke-opacity="0.10"/>
  <path d="M860 395H1250" stroke="#FFFFFF" stroke-opacity="0.18" stroke-width="2" stroke-linecap="round"/>
  <path d="M860 430H1170" stroke="#FFFFFF" stroke-opacity="0.16" stroke-width="2" stroke-linecap="round"/>

  <g opacity="0.85">
    <text x="120" y="930" fill="#FFFFFF" fill-opacity="0.42" font-family="Inter, Arial, sans-serif" font-size="18">HYDRAULIC POWER UNIT PLACEHOLDER · 可替换为液压站/阀组/管路实拍</text>
  </g>
</svg>

