<svg width="1600" height="1000" viewBox="0 0 1600 1000" fill="none" xmlns="http://www.w3.org/2000/svg">
  <defs>
    <linearGradient id="bg" x1="180" y1="160" x2="1420" y2="900" gradientUnits="userSpaceOnUse">
      <stop offset="0" stop-color="#0B0F16"/>
      <stop offset="0.55" stop-color="#0B2A4A" stop-opacity="0.75"/>
      <stop offset="1" stop-color="#0B0F16"/>
    </linearGradient>
    <linearGradient id="acc" x1="540" y1="240" x2="1240" y2="820" gradientUnits="userSpaceOnUse">
      <stop offset="0" stop-color="#F4B400" stop-opacity="0.9"/>
      <stop offset="1" stop-color="#F4B400" stop-opacity="0.10"/>
    </linearGradient>
  </defs>

  <rect width="1600" height="1000" rx="48" fill="url(#bg)"/>
  <rect x="110" y="170" width="1380" height="660" rx="36" fill="#FFFFFF" fill-opacity="0.04" stroke="#FFFFFF" stroke-opacity="0.10"/>

  <rect x="220" y="270" width="540" height="520" rx="30" fill="#FFFFFF" fill-opacity="0.06" stroke="#FFFFFF" stroke-opacity="0.10"/>
  <rect x="270" y="320" width="440" height="170" rx="22" fill="#0B0F16" fill-opacity="0.35" stroke="#FFFFFF" stroke-opacity="0.10"/>
  <rect x="270" y="520" width="210" height="220" rx="24" fill="#0B0F16" fill-opacity="0.35" stroke="#FFFFFF" stroke-opacity="0.10"/>
  <rect x="500" y="520" width="210" height="220" rx="24" fill="#0B0F16" fill-opacity="0.35" stroke="#FFFFFF" stroke-opacity="0.10"/>

  <rect x="820" y="270" width="560" height="520" rx="30" fill="#FFFFFF" fill-opacity="0.06" stroke="#FFFFFF" stroke-opacity="0.10"/>
  <rect x="870" y="320" width="460" height="120" rx="22" fill="url(#acc)"/>
  <path d="M920 410C1010 340 1110 520 1210 430C1290 360 1330 420 1330 420" stroke="#FFFFFF" stroke-opacity="0.18" stroke-width="2" stroke-linecap="round"/>
  <path d="M920 460C1010 390 1110 570 1210 480C1290 410 1330 470 1330 470" stroke="#FFFFFF" stroke-opacity="0.14" stroke-width="2" stroke-linecap="round"/>
  <rect x="870" y="470" width="460" height="270" rx="24" fill="#0B0F16" fill-opacity="0.35" stroke="#FFFFFF" stroke-opacity="0.10"/>

  <g opacity="0.85">
    <text x="120" y="930" fill="#FFFFFF" fill-opacity="0.42" font-family="Inter, Arial, sans-serif" font-size="18">TESTING PLACEHOLDER · 可替换为试验台/数据采集/操作台照片</text>
  </g>
</svg>

